<svg id="Layer_1" data-name="Layer 1" xmlns="http://www.w3.org/2000/svg" width="691" height="691" viewBox="0 0 691 691"><defs><style>.cls-1{fill:#23292f;}.cls-2{fill:#fff;}</style></defs><title>Untitled-226</title><path class="cls-1" d="M698.91,29.5H51.09A21.59,21.59,0,0,0,29.5,51.09V698.91A21.59,21.59,0,0,0,51.09,720.5H698.91a21.59,21.59,0,0,0,21.59-21.59V51.09A21.59,21.59,0,0,0,698.91,29.5Z" transform="translate(-29.5 -29.5)"/><path class="cls-2" d="M515.36,204.09h59l-123,122.32a113.84,113.84,0,0,1-160.87,0L167.7,204.09h59l93.23,93.07a72.14,72.14,0,0,0,101.92,0Z" transform="translate(-29.5 -29.5)"/><path class="cls-2" d="M226.71,544.89h-59l123.52-123.3a113.84,113.84,0,0,1,160.87,0l123.52,123.3h-59l-94-93.88a72.19,72.19,0,0,0-101.92,0Z" transform="translate(-29.5 -29.5)"/></svg>